<?xml version="1.0" standalone="no"?>
<!DOCTYPE svg PUBLIC "-//W3C//DTD SVG 20010904//EN"
 "http://www.w3.org/TR/2001/REC-SVG-20010904/DTD/svg10.dtd">
<svg version="1.0" xmlns="http://www.w3.org/2000/svg"
 width="960.000000pt" height="960.000000pt" viewBox="0 0 960.000000 960.000000"
 preserveAspectRatio="xMidYMid meet">

<g transform="translate(0.000000,960.000000) scale(0.100000,-0.100000)"
fill="#000000" stroke="none">
<path d="M1033 4725 c0 -22 2 -30 4 -17 2 12 2 30 0 40 -3 9 -5 -1 -4 -23z"/>
<path d="M1463 4703 c9 -2 25 -2 35 0 9 3 1 5 -18 5 -19 0 -27 -2 -17 -5z"/>
<path d="M1583 4679 c9 -6 14 -15 11 -21 -4 -6 -2 -8 4 -4 6 3 15 -2 21 -11 6
-10 11 -13 11 -7 0 13 -42 54 -56 54 -5 0 -1 -5 9 -11z"/>
<path d="M3161 4654 c0 -11 3 -14 6 -6 3 7 2 16 -1 19 -3 4 -6 -2 -5 -13z"/>
<path d="M1234 4644 c-18 -14 -18 -15 4 -4 12 6 22 13 22 15 0 8 -5 6 -26 -11z"/>
<path d="M4752 4640 c0 -14 2 -19 5 -12 2 6 2 18 0 25 -3 6 -5 1 -5 -13z"/>
<path d="M1383 4643 c9 -2 23 -2 30 0 6 3 -1 5 -18 5 -16 0 -22 -2 -12 -5z"/>
<path d="M4902 4615 c0 -16 2 -22 5 -12 2 9 2 23 0 30 -3 6 -5 -1 -5 -18z"/>
<path d="M1187 4612 c-22 -24 -22 -52 1 -52 14 0 14 2 3 9 -8 5 -11 16 -8 26
4 9 11 14 15 11 5 -3 9 1 9 9 0 19 -1 19 -20 -3z"/>
<path d="M7101 4614 c0 -11 3 -14 6 -6 3 7 2 16 -1 19 -3 4 -6 -2 -5 -13z"/>
<path d="M1265 4610 c-3 -6 1 -7 9 -4 18 7 21 14 7 14 -6 0 -13 -4 -16 -10z"/>
<path d="M5872 4595 c0 -16 2 -22 5 -12 2 9 2 23 0 30 -3 6 -5 -1 -5 -18z"/>
<path d="M793 4575 c0 -22 2 -30 4 -17 2 12 2 30 0 40 -3 9 -5 -1 -4 -23z"/>
<path d="M3641 4594 c0 -11 3 -14 6 -6 3 7 2 16 -1 19 -3 4 -6 -2 -5 -13z"/>
<path d="M1224 4584 c-18 -14 -18 -15 4 -4 12 6 22 13 22 15 0 8 -5 6 -26 -11z"/>
<path d="M1633 4535 c0 -33 2 -45 4 -27 2 18 2 45 0 60 -2 15 -4 0 -4 -33z"/>
<path d="M2931 4574 c0 -11 3 -14 6 -6 3 7 2 16 -1 19 -3 4 -6 -2 -5 -13z"/>
<path d="M6349 4563 c-13 -16 -12 -17 4 -4 16 13 21 21 13 21 -2 0 -10 -8 -17
-17z"/>
<path d="M1033 4520 c0 -25 2 -35 4 -22 2 12 2 32 0 45 -2 12 -4 2 -4 -23z"/>
<path d="M5872 4530 c0 -19 2 -27 5 -17 2 9 2 25 0 35 -3 9 -5 1 -5 -18z"/>
<path d="M7782 4535 c0 -16 2 -22 5 -12 2 9 2 23 0 30 -3 6 -5 -1 -5 -18z"/>
<path d="M1575 4493 c-12 -88 -36 -151 -80 -219 -25 -38 -45 -65 -45 -60 0 4
-12 -2 -26 -13 -30 -24 -114 -51 -156 -51 -16 0 -45 7 -66 17 -20 9 -41 15
-45 14 -5 -1 -6 3 -3 8 7 11 -19 33 -28 23 -4 -4 -6 -2 -4 4 4 14 -43 114 -53
109 -4 -3 -5 5 -1 17 3 14 1 19 -6 14 -8 -5 -10 2 -6 24 6 27 4 30 -17 29 -15
-1 -18 -3 -8 -6 12 -3 17 -14 16 -39 l-1 -35 -85 3 -86 3 1 32 c1 18 -3 30 -7
27 -5 -3 -9 -1 -9 5 0 5 5 11 12 13 9 3 9 6 0 12 -7 4 -12 2 -12 -4 0 -6 -4
-8 -10 -5 -5 3 -3 -10 5 -29 9 -22 11 -37 5 -41 -6 -3 -10 5 -10 19 0 14 -5
28 -11 31 -5 4 -8 21 -5 38 5 25 4 27 -3 12 -9 -19 -10 -19 -10 -1 -1 11 -4
17 -7 13 -3 -3 4 -36 16 -73 17 -49 25 -63 32 -53 7 10 8 7 4 -10 -4 -21 36
-111 51 -111 2 0 2 4 -1 8 -3 5 1 9 9 9 12 0 12 -3 3 -15 -10 -12 -4 -23 37
-60 76 -69 142 -95 253 -100 62 -3 92 -1 92 6 0 6 6 9 14 6 21 -8 89 23 80 37
-4 8 -3 9 4 5 15 -9 63 23 55 38 -3 6 -2 8 2 3 9 -8 65 40 65 56 0 4 -10 6
-22 3 -13 -3 -17 -3 -10 0 6 3 9 10 6 16 -4 6 2 6 14 -1 19 -10 23 -8 36 18 8
15 12 31 9 35 -4 3 -2 6 4 6 13 0 36 55 52 127 10 39 10 56 1 70 -10 16 -10
16 -5 -4 7 -24 -3 -68 -12 -59 -4 3 -12 1 -20 -5 -10 -9 -13 -8 -13 5 0 9 3
16 8 16 4 0 8 25 9 55 1 30 0 55 -1 55 -2 0 -7 -21 -11 -47z m23 -131 c-13
-46 -27 -65 -46 -57 -10 4 -12 0 -8 -12 5 -13 4 -15 -4 -7 -8 8 -8 19 0 39 10
27 11 27 25 9 13 -17 14 -17 15 -2 0 9 -4 20 -10 23 -5 3 -10 16 -10 28 1 19
3 18 16 -8 13 -28 14 -28 9 -4 -5 27 2 42 16 34 4 -3 3 -22 -3 -43z m-654 -69
c10 -25 3 -23 -17 3 -13 18 -14 22 -3 18 8 -3 17 -13 20 -21z m-33 0 c11 -15
11 -16 -1 -5 -24 21 -31 13 -14 -15 l16 -28 -21 24 c-12 13 -21 27 -21 32 0
15 27 10 41 -8z m630 -41 c-6 -2 -8 -9 -5 -14 4 -7 2 -8 -4 -4 -6 4 -8 14 -5
23 4 10 2 14 -4 10 -5 -3 -10 0 -10 8 0 12 4 12 19 -2 11 -10 15 -19 9 -21z
m-441 8 c6 -11 8 -20 6 -20 -3 0 -10 9 -16 20 -6 11 -8 20 -6 20 3 0 10 -9 16
-20z m-143 -22 c-3 -8 -6 -5 -6 6 -1 11 2 17 5 13 3 -3 4 -12 1 -19z m534 -55
c13 -16 12 -17 -3 -4 -10 7 -18 15 -18 17 0 8 8 3 21 -13z"/>
<path d="M1550 4320 c0 -5 5 -10 11 -10 5 0 7 5 4 10 -3 6 -8 10 -11 10 -2 0
-4 -4 -4 -10z"/>
<path d="M1991 4524 c0 -11 3 -14 6 -6 3 7 2 16 -1 19 -3 4 -6 -2 -5 -13z"/>
<path d="M2932 4515 c0 -16 2 -22 5 -12 2 9 2 23 0 30 -3 6 -5 -1 -5 -18z"/>
<path d="M6356 4532 c-3 -5 1 -9 9 -9 8 0 12 4 9 9 -3 4 -7 8 -9 8 -2 0 -6 -4
-9 -8z"/>
<path d="M8596 4523 c-6 -14 -5 -15 5 -6 7 7 10 15 7 18 -3 3 -9 -2 -12 -12z"/>
<path d="M800 4506 c0 -14 4 -27 8 -30 5 -3 6 8 4 25 -5 35 -12 38 -12 5z"/>
<path d="M3132 4500 c0 -19 2 -27 5 -17 2 9 2 25 0 35 -3 9 -5 1 -5 -18z"/>
<path d="M1792 4495 c0 -16 2 -22 5 -12 2 9 2 23 0 30 -3 6 -5 -1 -5 -18z"/>
<path d="M7322 4500 c0 -14 2 -19 5 -12 2 6 2 18 0 25 -3 6 -5 1 -5 -13z"/>
<path d="M830 4496 c0 -8 4 -17 9 -20 5 -4 7 3 4 14 -6 23 -13 26 -13 6z"/>
<path d="M7792 4480 c0 -14 2 -19 5 -12 2 6 2 18 0 25 -3 6 -5 1 -5 -13z"/>
<path d="M2186 4473 c-6 -14 -5 -15 5 -6 7 7 10 15 7 18 -3 3 -9 -2 -12 -12z"/>
<path d="M3726 4472 c-2 -4 4 -8 14 -8 10 0 16 4 14 8 -3 4 -9 8 -14 8 -5 0
-11 -4 -14 -8z"/>
<path d="M6051 4464 c0 -11 3 -14 6 -6 3 7 2 16 -1 19 -3 4 -6 -2 -5 -13z"/>
<path d="M6571 4464 c0 -11 3 -14 6 -6 3 7 2 16 -1 19 -3 4 -6 -2 -5 -13z"/>
<path d="M3316 4453 c-6 -14 -5 -15 5 -6 7 7 10 15 7 18 -3 3 -9 -2 -12 -12z"/>
<path d="M3386 4457 c3 -10 9 -15 12 -12 3 3 0 11 -7 18 -10 9 -11 8 -5 -6z"/>
<path d="M1042 4440 c0 -14 2 -19 5 -12 2 6 2 18 0 25 -3 6 -5 1 -5 -13z"/>
<path d="M1982 4435 c0 -16 2 -22 5 -12 2 9 2 23 0 30 -3 6 -5 -1 -5 -18z"/>
<path d="M2710 4430 c-12 -16 -19 -30 -16 -30 2 0 14 14 26 30 12 17 19 30 16
30 -2 0 -14 -13 -26 -30z"/>
<path d="M5881 4444 c0 -11 3 -14 6 -6 3 7 2 16 -1 19 -3 4 -6 -2 -5 -13z"/>
<path d="M7311 4444 c0 -11 3 -14 6 -6 3 7 2 16 -1 19 -3 4 -6 -2 -5 -13z"/>
<path d="M2205 4424 c-9 -15 -12 -23 -6 -20 11 7 35 46 28 46 -3 0 -12 -12
-22 -26z"/>
<path d="M2941 4434 c0 -11 3 -14 6 -6 3 7 2 16 -1 19 -3 4 -6 -2 -5 -13z"/>
<path d="M5392 4430 c0 -14 2 -19 5 -12 2 6 2 18 0 25 -3 6 -5 1 -5 -13z"/>
<path d="M6221 4437 c-8 -10 -7 -14 2 -14 8 0 14 6 14 14 0 7 -1 13 -2 13 -2
0 -8 -6 -14 -13z"/>
<path d="M7801 4440 c0 -8 4 -24 9 -35 5 -13 9 -14 9 -5 0 8 -4 24 -9 35 -5
13 -9 14 -9 5z"/>
<path d="M8513 4435 c0 -8 4 -15 9 -15 4 0 8 4 8 9 0 6 -4 12 -8 15 -5 3 -9
-1 -9 -9z"/>
<path d="M2251 4424 c0 -11 3 -14 6 -6 3 7 2 16 -1 19 -3 4 -6 -2 -5 -13z"/>
<path d="M4262 4420 c0 -14 2 -19 5 -12 2 6 2 18 0 25 -3 6 -5 1 -5 -13z"/>
<path d="M7093 4395 c0 -27 2 -38 4 -22 2 15 2 37 0 50 -2 12 -4 0 -4 -28z"/>
<path d="M7555 4429 c-4 -6 -5 -12 -2 -15 2 -3 7 2 10 11 7 17 1 20 -8 4z"/>
<path d="M5680 4420 c-9 -6 -10 -10 -3 -10 6 0 15 5 18 10 8 12 4 12 -15 0z"/>
<path d="M2139 4403 c-13 -16 -12 -17 4 -4 16 13 21 21 13 21 -2 0 -10 -8 -17
-17z"/>
<path d="M2736 4393 c-6 -14 -5 -15 5 -6 7 7 10 15 7 18 -3 3 -9 -2 -12 -12z"/>
<path d="M3382 4390 c0 -14 2 -19 5 -12 2 6 2 18 0 25 -3 6 -5 1 -5 -13z"/>
<path d="M4505 4401 c-3 -5 -2 -12 3 -15 5 -3 9 1 9 9 0 17 -3 19 -12 6z"/>
<path d="M5609 4393 c-13 -16 -12 -17 4 -4 16 13 21 21 13 21 -2 0 -10 -8 -17
-17z"/>
<path d="M6245 4390 c-10 -11 -21 -18 -25 -15 -4 2 -7 -3 -7 -11 0 -10 9 -6
29 13 15 15 28 28 28 30 0 7 -8 2 -25 -17z"/>
<path d="M6595 4400 c-3 -5 -2 -17 3 -26 6 -11 11 -13 16 -5 4 6 2 11 -4 11
-7 0 -10 7 -6 15 6 17 0 20 -9 5z"/>
<path d="M8419 4383 l-24 -28 28 24 c25 23 32 31 24 31 -2 0 -14 -12 -28 -27z"/>
<path d="M8494 4388 l-19 -23 23 19 c12 11 22 21 22 23 0 8 -8 2 -26 -19z"/>
<path d="M3131 4384 c0 -11 3 -14 6 -6 3 7 2 16 -1 19 -3 4 -6 -2 -5 -13z"/>
<path d="M4072 4370 c0 -19 2 -27 5 -17 2 9 2 25 0 35 -3 9 -5 1 -5 -18z"/>
<path d="M4549 4383 c-13 -16 -12 -17 4 -4 9 7 17 15 17 17 0 8 -8 3 -21 -13z"/>
<path d="M5382 4375 c0 -16 2 -22 5 -12 2 9 2 23 0 30 -3 6 -5 -1 -5 -18z"/>
<path d="M7506 4362 c-16 -20 -21 -29 -10 -19 12 9 24 15 27 12 4 -3 5 -2 2 1
-2 4 0 15 6 25 15 29 7 23 -25 -19z"/>
<path d="M3640 4380 c-9 -6 -10 -10 -3 -10 6 0 15 5 18 10 8 12 4 12 -15 0z"/>
<path d="M6108 4383 c7 -3 16 -2 19 1 4 3 -2 6 -13 5 -11 0 -14 -3 -6 -6z"/>
<path d="M1990 4371 c0 -6 4 -13 10 -16 6 -3 7 1 4 9 -7 18 -14 21 -14 7z"/>
<path d="M2431 4364 c0 -11 3 -14 6 -6 3 7 2 16 -1 19 -3 4 -6 -2 -5 -13z"/>
<path d="M2647 4344 c-17 -20 -24 -35 -17 -39 6 -4 10 -3 9 2 -3 20 2 25 16
13 16 -13 21 -35 6 -26 -5 3 -14 0 -20 -7 -8 -10 -7 -14 5 -14 8 0 24 13 35
28 17 25 18 27 2 24 -29 -4 -35 6 -17 26 9 11 15 21 13 23 -2 1 -17 -12 -32
-30z"/>
<path d="M5900 4374 c0 -5 12 -22 26 -39 l26 -30 -23 35 c-29 45 -29 45 -29
34z"/>
<path d="M7301 4364 c0 -11 3 -14 6 -6 3 7 2 16 -1 19 -3 4 -6 -2 -5 -13z"/>
<path d="M7991 4370 c0 -8 4 -22 9 -30 12 -18 12 -2 0 25 -6 13 -9 15 -9 5z"/>
<path d="M2252 4350 c0 -14 2 -19 5 -12 2 6 2 18 0 25 -3 6 -5 1 -5 -13z"/>
<path d="M3300 4355 c-7 -8 -16 -12 -21 -9 -5 3 -8 0 -7 -8 2 -7 -3 -12 -10
-10 -8 1 -11 -2 -7 -9 5 -7 17 -1 36 17 16 15 29 29 29 31 0 7 -8 2 -20 -12z"/>
<path d="M5115 4350 c-10 -11 -16 -22 -14 -24 2 -2 12 7 22 20 22 29 17 32 -8
4z"/>
<path d="M5639 4353 c-13 -16 -12 -17 4 -4 9 7 17 15 17 17 0 8 -8 3 -21 -13z"/>
<path d="M2075 4350 c-16 -7 -17 -9 -3 -9 9 -1 20 4 23 9 7 11 7 11 -20 0z"/>
<path d="M4509 4330 c-12 -16 -25 -27 -30 -25 -7 5 -19 -17 -25 -43 -2 -10 1
-10 12 -1 7 6 11 15 8 20 -3 5 -1 9 4 9 5 0 22 16 36 35 15 19 25 35 22 35 -3
0 -15 -13 -27 -30z"/>
<path d="M4940 4344 c8 -10 15 -20 16 -22 1 -2 4 1 7 5 3 5 -4 15 -16 23 -21
12 -21 12 -7 -6z"/>
<path d="M3125 4341 c-3 -5 -2 -12 3 -15 5 -3 9 1 9 9 0 17 -3 19 -12 6z"/>
<path d="M3206 4341 c-4 -5 -2 -12 3 -15 5 -4 12 -2 15 3 4 5 2 12 -3 15 -5 4
-12 2 -15 -3z"/>
<path d="M6767 4331 c-2 -10 -1 -24 3 -30 4 -7 7 1 8 18 1 35 -3 40 -11 12z"/>
<path d="M7534 4325 c-9 -14 -21 -22 -27 -18 -6 3 -7 1 -3 -5 10 -17 12 -16
36 18 12 17 19 30 16 30 -3 0 -13 -11 -22 -25z"/>
<path d="M3366 4299 c-4 -23 -5 -44 -2 -46 2 -2 7 14 11 37 4 23 5 43 2 46 -2
3 -7 -14 -11 -37z"/>
<path d="M4445 4320 c-10 -11 -14 -20 -9 -20 5 0 15 9 22 20 7 11 11 20 9 20
-2 0 -12 -9 -22 -20z"/>
<path d="M2980 4325 c0 -2 6 -8 13 -14 10 -8 14 -7 14 2 0 8 -6 14 -14 14 -7
0 -13 -1 -13 -2z"/>
<path d="M5373 4290 c0 -25 2 -35 4 -22 2 12 2 32 0 45 -2 12 -4 2 -4 -23z"/>
<path d="M5544 4308 c-10 -13 -15 -20 -10 -16 5 4 16 2 25 -5 14 -10 14 -10 4
4 -10 12 -10 18 -1 27 7 7 10 12 7 12 -3 0 -14 -10 -25 -22z"/>
<path d="M7293 4285 c0 -27 2 -38 4 -22 2 15 2 37 0 50 -2 12 -4 0 -4 -28z"/>
<path d="M8356 4322 c-3 -6 -1 -14 5 -17 15 -10 25 3 12 16 -7 7 -13 7 -17 1z"/>
<path d="M8424 4315 c-10 -8 -14 -15 -8 -15 6 0 17 7 24 15 16 19 9 19 -16 0z"/>
<path d="M1865 4300 c10 -11 20 -20 23 -20 3 0 -3 9 -13 20 -10 11 -20 20 -23
20 -3 0 3 -9 13 -20z"/>
<path d="M2105 4309 c-4 -6 -14 -8 -22 -5 -8 3 -11 2 -8 -4 9 -14 -75 -33
-128 -27 -29 2 -43 1 -35 -4 18 -12 85 -11 130 1 32 9 93 49 76 50 -4 0 -10
-5 -13 -11z"/>
<path d="M2252 4300 c0 -14 4 -36 8 -50 6 -20 8 -21 8 -5 0 11 -4 34 -8 50 -7
27 -8 27 -8 5z"/>
<path d="M4250 4278 c-3 -26 -1 -43 3 -39 5 5 7 26 5 47 l-3 39 -5 -47z"/>
<path d="M4839 4307 c23 -30 67 -47 113 -46 l43 2 -50 7 c-63 9 -87 19 -78 34
3 6 3 8 -2 4 -4 -4 -15 -2 -24 5 -14 11 -14 10 -2 -6z"/>
<path d="M5050 4310 c-8 -5 -7 -9 3 -13 9 -3 20 0 26 7 8 9 7 13 -4 13 -8 0
-19 -3 -25 -7z"/>
<path d="M6117 4308 c2 -5 -1 -8 -8 -8 -7 0 -10 -3 -7 -6 4 -3 19 1 35 9 l28
15 -27 -1 c-14 -1 -24 -5 -21 -9z"/>
<path d="M6735 4311 c-3 -5 -2 -12 3 -15 5 -3 9 1 9 9 0 17 -3 19 -12 6z"/>
<path d="M7454 4299 c-10 -11 -14 -20 -9 -19 21 5 29 -1 15 -10 -8 -5 -10 -10
-4 -10 6 0 17 7 24 16 8 8 9 14 4 13 -21 -4 -26 2 -14 16 19 23 6 18 -16 -6z"/>
<path d="M4082 4285 c0 -16 2 -22 5 -12 2 9 2 23 0 30 -3 6 -5 -1 -5 -18z"/>
<path d="M5980 4300 c0 -5 5 -10 11 -10 5 0 7 5 4 10 -3 6 -8 10 -11 10 -2 0
-4 -4 -4 -10z"/>
<path d="M7860 4293 c13 -27 27 -36 35 -23 4 6 2 9 -4 8 -5 -2 -17 6 -26 17
-16 20 -16 20 -5 -2z"/>
<path d="M8302 4280 c-18 -17 -29 -30 -24 -30 5 0 19 11 32 25 12 13 27 22 33
18 6 -3 7 -1 3 5 -9 15 -5 17 -44 -18z"/>
<path d="M2281 4284 c0 -11 3 -14 6 -6 3 7 2 16 -1 19 -3 4 -6 -2 -5 -13z"/>
<path d="M2422 4270 c0 -19 2 -27 5 -17 2 9 2 25 0 35 -3 9 -5 1 -5 -18z"/>
<path d="M2556 4244 c-54 -51 -62 -56 -95 -51 -20 3 -30 3 -23 0 6 -2 10 -8 7
-12 -7 -13 42 -6 58 8 9 7 21 10 27 6 6 -4 9 -1 8 7 -2 7 4 12 12 10 8 -2 12
0 7 4 -4 4 0 16 9 26 14 15 20 16 33 5 14 -11 14 -10 2 6 -12 15 -9 21 10 19
3 -1 6 6 6 14 0 8 -1 14 -1 14 -1 -1 -28 -26 -60 -56z"/>
<path d="M3045 4275 c17 -8 50 -14 75 -14 25 0 59 6 75 14 23 11 24 13 5 7
-14 -4 -50 -7 -80 -7 -30 0 -66 3 -80 7 -19 6 -18 4 5 -7z"/>
<path d="M5182 4265 c0 -16 2 -22 5 -12 2 9 2 23 0 30 -3 6 -5 -1 -5 -18z"/>
<path d="M6023 4283 c9 -2 25 -2 35 0 9 3 1 5 -18 5 -19 0 -27 -2 -17 -5z"/>
<path d="M4375 4240 c-21 -22 -47 -43 -58 -46 -18 -6 -18 -6 0 -20 10 -7 14
-14 9 -14 -5 0 -3 -6 3 -14 10 -11 8 -16 -8 -21 -12 -3 -21 -10 -21 -15 0 -7
-18 -3 -72 16 -10 4 -18 13 -18 22 0 13 -3 12 -15 -4 -17 -23 -19 -34 -4 -34
5 0 7 5 3 12 -5 8 -2 9 10 5 10 -4 22 -7 27 -7 6 0 7 -5 3 -12 -5 -7 -2 -8 7
-3 12 7 12 6 0 -6 -10 -11 -15 -11 -18 -1 -6 17 -23 15 -23 -3 0 -11 11 -15
36 -15 24 0 33 4 28 12 -5 8 -2 9 10 5 24 -9 93 39 141 100 30 38 33 43 10 23
-21 -19 -27 -21 -22 -8 3 10 3 17 -1 15 -4 -1 -7 3 -7 8 0 6 5 9 10 7 6 -2 7
0 3 4 -4 4 -3 13 3 21 23 27 2 11 -36 -27z m17 -37 c5 -22 -41 -68 -54 -55 -5
5 -3 14 7 22 8 7 15 21 15 31 0 24 27 25 32 2z m-47 -22 c-3 -6 -11 -8 -17 -5
-6 4 -5 9 3 15 16 10 23 4 14 -10z"/>
<path d="M5008 4273 c7 -3 16 -2 19 1 4 3 -2 6 -13 5 -11 0 -14 -3 -6 -6z"/>
<path d="M5505 4260 c-10 -11 -15 -23 -12 -27 4 -3 7 -1 7 6 0 7 5 9 13 5 6
-4 9 -4 5 1 -4 4 -3 14 3 22 18 21 4 15 -16 -7z"/>
<path d="M6693 4268 c16 -10 75 -10 80 0 3 4 -17 7 -43 7 -27 0 -43 -3 -37 -7z"/>
<path d="M7484 4258 l-19 -23 23 19 c12 11 22 21 22 23 0 8 -8 2 -26 -19z"/>
<path d="M8340 4260 c5 -10 8 -19 7 -21 -1 -2 0 -3 2 -1 11 6 6 39 -5 39 -9 0
-10 -5 -4 -17z"/>
<path d="M3575 4240 c-4 -17 -5 -34 -2 -36 2 -3 7 10 11 27 8 42 0 50 -9 9z"/>
<path d="M5550 4241 c-20 -29 -50 -45 -34 -19 4 7 3 8 -5 4 -6 -4 -9 -12 -6
-17 4 -5 2 -9 -3 -9 -6 0 -13 7 -16 16 -6 17 -26 10 -26 -9 0 -9 2 -9 8 0 6 9
11 7 20 -7 9 -15 9 -20 0 -20 -6 0 -8 -3 -5 -6 4 -4 28 14 54 39 26 25 44 49
41 52 -3 3 -16 -8 -28 -24z"/>
<path d="M7101 4255 c-1 -22 19 -99 24 -93 2 1 -3 28 -10 58 -7 30 -14 46 -14
35z"/>
<path d="M2626 4248 c3 -4 -10 -17 -28 -28 -18 -11 -26 -20 -18 -20 8 0 -4
-20 -30 -47 -26 -28 -31 -35 -12 -18 55 49 113 122 97 122 -8 0 -12 -4 -9 -9z"/>
<path d="M8047 4240 c9 -11 19 -17 21 -15 6 6 -18 35 -29 35 -5 0 -1 -9 8 -20z"/>
<path d="M7890 4246 c0 -2 7 -9 15 -16 9 -7 15 -8 15 -2 0 5 -7 12 -15 16 -8
3 -15 4 -15 2z"/>
<path d="M3334 4225 c-4 -8 -11 -12 -17 -8 -6 3 -7 1 -3 -5 10 -16 14 -15 26
8 6 11 8 20 5 20 -3 0 -8 -7 -11 -15z"/>
<path d="M5365 4215 c0 -13 3 -21 8 -18 4 2 7 10 7 18 0 8 -3 16 -7 18 -5 3
-8 -5 -8 -18z"/>
<path d="M8222 4231 c-11 -7 -11 -9 0 -14 9 -3 15 1 15 9 0 8 -1 14 -1 14 -1
0 -7 -4 -14 -9z"/>
<path d="M5191 4220 c-1 -30 45 -95 79 -112 42 -21 109 -23 135 -4 18 13 18
14 -6 25 -22 11 -22 11 -6 -3 18 -14 18 -14 0 -19 -10 -2 -36 -5 -58 -6 l-40
-1 30 14 c22 10 34 10 45 2 13 -10 13 -9 1 6 -10 14 -17 15 -33 7 -11 -6 -26
-8 -34 -5 -9 3 -12 1 -9 -4 3 -6 -1 -10 -10 -10 -17 0 -17 29 0 43 6 5 4 7 -5
4 -22 -6 -39 17 -34 44 4 22 3 22 -5 4 -6 -12 -10 -15 -10 -6 -1 8 -4 12 -7 9
-3 -4 -1 -16 6 -27 6 -12 7 -21 1 -21 -5 0 -16 17 -24 38 -9 20 -16 30 -16 22z
m73 -92 c-3 -5 -12 -4 -20 3 -7 6 -11 15 -8 21 3 5 12 4 20 -3 7 -6 11 -15 8
-21z"/>
<path d="M7291 4214 c0 -11 3 -14 6 -6 3 7 2 16 -1 19 -3 4 -6 -2 -5 -13z"/>
<path d="M7369 4213 c-8 -10 -9 -14 -2 -10 6 4 14 3 18 -3 3 -5 1 -10 -6 -10
-7 0 -10 -3 -6 -6 3 -3 13 -2 22 4 16 8 16 9 0 15 -9 4 -13 11 -10 17 10 16
-1 11 -16 -7z"/>
<path d="M7425 4193 c-22 -21 -42 -37 -45 -35 -3 1 -5 -3 -5 -8 0 -6 -7 -15
-15 -20 -8 -5 -12 -11 -10 -14 7 -6 26 10 80 67 53 56 50 62 -5 10z"/>
<path d="M7932 4220 c3 -17 56 -60 72 -59 6 0 1 5 -12 11 -13 7 -21 17 -18 25
4 8 1 11 -5 8 -6 -4 -17 1 -25 11 -10 14 -14 15 -12 4z"/>
<path d="M8087 4219 c7 -7 15 -10 18 -7 3 3 -2 9 -12 12 -14 6 -15 5 -6 -5z"/>
<path d="M8306 4215 c-10 -8 -23 -12 -29 -8 -6 4 -7 1 -2 -7 6 -10 4 -12 -8
-7 -9 3 -18 -1 -21 -10 -4 -9 -14 -13 -26 -10 -13 3 -18 1 -14 -5 5 -7 -2 -9
-19 -6 -16 3 -24 1 -20 -5 4 -7 -21 -8 -73 -5 -58 5 -72 3 -54 -4 43 -17 153
-4 214 26 29 14 59 33 66 41 16 19 11 19 -14 0z"/>
<path d="M2274 4205 c-3 -8 -4 -20 -2 -27 3 -7 7 -1 10 15 6 29 1 36 -8 12z"/>
<path d="M4117 4208 c2 -5 10 -8 18 -8 8 0 16 3 18 8 3 4 -5 7 -18 7 -13 0
-21 -3 -18 -7z"/>
<path d="M4245 4210 c-3 -6 1 -7 9 -4 18 7 21 14 7 14 -6 0 -13 -4 -16 -10z"/>
<path d="M2404 4190 c0 -13 4 -16 10 -10 7 7 7 13 0 20 -6 6 -10 3 -10 -10z"/>
<path d="M5430 4200 c-9 -6 -10 -10 -3 -10 6 0 15 5 18 10 8 12 4 12 -15 0z"/>
<path d="M8135 4200 c18 -8 18 -9 -5 -10 -23 -1 -23 -2 -5 -9 11 -5 22 -4 23
0 2 5 13 9 25 10 21 0 21 1 2 9 -11 5 -29 9 -40 9 l-20 0 20 -9z"/>
<path d="M3288 4193 c7 -3 16 -2 19 1 4 3 -2 6 -13 5 -11 0 -14 -3 -6 -6z"/>
<path d="M3332 4180 c-21 -18 -26 -18 -44 -6 -18 13 -25 12 -59 -11 -45 -29
-44 -29 -23 -37 8 -3 13 -2 10 3 -8 12 21 34 33 27 5 -4 12 -2 16 4 7 12 26
14 24 3 -4 -22 4 -23 30 -4 15 11 30 18 33 16 3 -3 5 2 5 10 0 8 -1 15 -1 15
-1 -1 -12 -9 -24 -20z"/>
<path d="M4106 4180 c8 -34 17 -41 34 -29 13 9 13 10 0 6 -9 -2 -20 7 -27 22
l-13 26 6 -25z"/>
<path d="M4260 4192 c0 -5 6 -15 14 -21 12 -10 14 -9 12 5 -3 19 -26 33 -26
16z"/>
<path d="M8010 4196 c0 -2 8 -10 18 -17 15 -13 16 -12 3 4 -13 16 -21 21 -21
13z"/>
<path d="M2540 4180 c-9 -6 -10 -10 -3 -10 6 0 15 5 18 10 8 12 4 12 -15 0z"/>
<path d="M3561 4177 c-1 -11 -6 -15 -13 -11 -7 5 -8 3 -3 -5 10 -16 29 2 22
21 -4 8 -6 7 -6 -5z"/>
<path d="M5376 4181 c-3 -5 1 -14 9 -21 12 -10 18 -10 31 0 12 11 18 10 32 -3
13 -14 14 -17 2 -18 -8 -1 -19 -1 -23 0 -5 1 -5 -3 -2 -9 7 -12 52 11 48 24
-2 3 -5 5 -6 4 -2 -2 -11 3 -20 11 -13 11 -20 11 -32 1 -8 -6 -20 -8 -26 -4
-9 5 -7 10 7 15 16 6 16 8 2 8 -9 1 -19 -3 -22 -8z"/>
<path d="M2300 4161 c0 -7 -5 -9 -11 -5 -6 3 -3 -8 6 -25 10 -19 20 -29 27
-24 9 5 9 8 0 11 -9 3 -10 8 -2 17 7 9 6 16 -5 25 -11 9 -15 9 -15 1z m20 -15
c0 -3 -4 -8 -10 -11 -5 -3 -10 -1 -10 4 0 6 5 11 10 11 6 0 10 -2 10 -4z"/>
<path d="M2415 4160 c-3 -5 -1 -10 4 -10 6 0 11 5 11 10 0 6 -2 10 -4 10 -3 0
-8 -4 -11 -10z"/>
<path d="M7159 4165 c-1 -3 -3 -9 -4 -15 -1 -5 -3 -13 -4 -17 -1 -5 -6 -1 -11
7 -5 8 -10 10 -10 3 0 -31 116 -90 137 -69 4 3 -6 6 -20 6 -15 0 -27 5 -27 10
0 6 -12 10 -27 10 -27 1 -27 1 -8 16 l20 16 -20 -4 c-15 -2 -20 2 -19 20 1 19
-4 31 -7 17z"/>
<path d="M7283 4153 c0 -9 4 -10 14 -2 7 6 13 12 13 14 0 1 -6 2 -13 2 -8 0
-14 -6 -14 -14z"/>
<path d="M2365 4150 c-3 -5 -1 -10 4 -10 6 0 11 5 11 10 0 6 -2 10 -4 10 -3 0
-8 -4 -11 -10z"/>
<path d="M3340 4150 c0 -5 5 -10 11 -10 5 0 7 5 4 10 -3 6 -8 10 -11 10 -2 0
-4 -4 -4 -10z"/>
<path d="M4235 4150 c-4 -6 -3 -10 2 -9 20 3 34 -2 28 -11 -3 -6 1 -7 10 -4
18 7 18 7 -12 23 -15 7 -24 8 -28 1z"/>
<path d="M5315 4140 c-3 -6 1 -7 9 -4 18 7 21 14 7 14 -6 0 -13 -4 -16 -10z"/>
<path d="M2375 4130 c-11 -5 -14 -9 -7 -9 6 -1 12 -6 12 -12 0 -5 -4 -7 -10
-4 -5 3 -17 2 -26 -3 -11 -6 -13 -11 -5 -16 6 -4 11 -2 11 4 0 7 7 5 16 -4 8
-9 27 -15 42 -15 l27 2 -27 4 c-16 2 -28 9 -28 15 0 5 7 8 15 4 8 -3 15 -1 15
4 0 6 -5 10 -11 10 -6 0 -9 7 -5 15 3 8 4 15 3 14 -1 0 -11 -4 -22 -9z"/>
<path d="M2410 4130 c0 -5 4 -10 9 -10 6 0 13 5 16 10 3 6 -1 10 -9 10 -9 0
-16 -4 -16 -10z"/>
<path d="M3230 4136 c0 -9 40 -13 46 -5 3 5 -6 9 -20 9 -14 0 -26 -2 -26 -4z"/>
<path d="M3536 4115 c3 -19 2 -25 -4 -17 -6 9 -9 3 -9 -18 0 -17 3 -27 7 -23
11 13 31 76 25 81 -3 3 -5 -1 -5 -9 0 -12 -2 -11 -10 1 -8 11 -9 7 -4 -15z"/>
<path d="M4135 4131 c-6 -10 32 -41 50 -41 5 1 -3 8 -18 16 -15 8 -25 19 -22
24 4 6 4 10 1 10 -3 0 -7 -4 -11 -9z"/>
<path d="M2446 4115 c-11 -8 -15 -15 -9 -15 6 0 16 7 23 15 16 19 11 19 -14 0z"/>
<path d="M2467 4105 c-29 -26 -27 -29 7 -16 11 4 20 15 22 24 3 21 5 21 -29
-8z"/>
<path d="M3109 4077 c-71 -59 -91 -81 -87 -93 1 -5 -3 -19 -10 -31 -10 -18
-10 -23 -1 -23 7 0 10 -3 6 -6 -3 -3 -11 -3 -17 1 -8 5 -6 15 5 33 16 26 15
26 -8 -2 -27 -32 -47 -88 -47 -134 0 -40 17 -85 30 -77 6 3 7 -1 4 -10 -9 -22
57 -82 104 -95 58 -16 158 -8 146 11 -3 5 2 6 10 3 18 -7 89 34 81 46 -3 5 0
12 6 16 8 4 9 3 5 -4 -4 -7 -3 -12 3 -12 14 0 73 78 67 89 -4 5 -1 13 5 17 8
4 9 3 5 -4 -4 -7 -5 -12 -3 -12 10 0 47 72 42 80 -3 5 -1 10 5 12 12 4 73 149
66 156 -5 4 -36 -64 -36 -80 0 -5 -4 -7 -9 -4 -5 4 -12 0 -14 -6 -4 -10 -6
-10 -6 0 -1 7 -6 10 -13 6 -7 -5 -8 -3 -4 5 5 7 11 10 14 7 11 -12 32 17 32
45 0 15 5 31 10 34 6 3 10 14 10 23 -1 25 -29 -27 -30 -54 0 -28 -10 -36 -26
-23 -8 6 -34 9 -59 7 -25 -2 -45 0 -45 4 0 5 -4 8 -10 8 -5 0 -7 -8 -4 -17 5
-15 4 -16 -5 -3 -6 8 -11 24 -11 35 0 16 2 17 9 6 7 -10 25 -14 61 -12 40 2
55 -2 66 -16 13 -16 13 -16 5 7 -7 21 -14 24 -40 22 -53 -6 -91 7 -91 31 0 20
0 20 14 1 14 -18 15 -18 13 4 -1 12 -5 22 -9 22 -4 0 -8 10 -9 23 0 12 -9 -14
-20 -58 -31 -129 -61 -217 -92 -270 -17 -27 -30 -56 -30 -63 0 -6 -2 -10 -5
-7 -2 2 -18 -3 -34 -11 -20 -10 -40 -13 -61 -8 -18 4 -36 7 -40 6 -5 -2 -6 2
-3 7 3 5 -1 14 -9 21 -8 7 -15 9 -15 5 0 -4 -7 -2 -15 5 -8 7 -15 17 -15 23 0
6 7 2 15 -9 13 -17 14 -16 4 14 -18 54 -6 124 29 173 18 24 32 49 32 57 0 7 4
10 10 7 6 -3 7 1 4 9 -3 9 -2 16 4 16 6 0 12 -5 14 -10 2 -6 22 7 46 29 23 21
42 37 42 35 0 -3 11 3 25 12 30 19 27 31 -3 15 -22 -12 -55 -4 -46 10 10 17
-3 9 -67 -44z m70 2 c-13 -25 -18 -24 -12 4 4 21 4 21 -11 3 -8 -10 -13 -23
-10 -27 2 -4 -4 -13 -15 -19 -14 -7 -22 -7 -26 0 -7 12 14 44 23 35 3 -3 11 4
19 15 18 25 47 16 32 -11z m-99 -44 c-7 -8 -10 -15 -6 -15 4 0 0 -13 -9 -30
-18 -35 -21 -37 -21 -11 0 11 4 17 9 14 5 -3 7 0 5 8 -3 8 1 22 10 32 18 21
29 23 12 2z m277 -87 c-3 -8 -6 -5 -6 6 -1 11 2 17 5 13 3 -3 4 -12 1 -19z
m-44 -7 c2 -10 1 -24 -3 -30 -4 -7 -7 1 -8 18 -1 35 3 40 11 12z m155 -31 c-7
-10 -14 -17 -17 -15 -4 4 18 35 25 35 2 0 -1 -9 -8 -20z m-470 -15 c-3 -3 -9
2 -12 12 -6 14 -5 15 5 6 7 -7 10 -15 7 -18z m2 -39 c0 -6 -7 -1 -15 10 -8 10
-15 23 -15 28 0 6 7 1 15 -10 8 -10 15 -23 15 -28z m-33 -28 c-3 -7 -5 -2 -5
12 0 14 2 19 5 13 2 -7 2 -19 0 -25z m286 -33 c-3 -9 -8 -14 -10 -11 -3 3 -2
9 2 15 9 16 15 13 8 -4z"/>
<path d="M3115 4050 c-3 -6 1 -7 9 -4 18 7 21 14 7 14 -6 0 -13 -4 -16 -10z"/>
<path d="M7295 4100 c-11 -13 -14 -20 -6 -20 21 0 52 21 46 31 -9 14 -20 11
-40 -11z m35 6 c0 -2 -7 -7 -16 -10 -8 -3 -12 -2 -9 4 6 10 25 14 25 6z"/>
<path d="M3460 4069 c0 -5 5 -7 10 -4 6 3 10 8 10 11 0 2 -4 4 -10 4 -5 0 -10
-5 -10 -11z"/>
<path d="M4228 3907 c-177 -50 -216 -228 -66 -305 26 -13 93 -35 149 -48 161
-38 219 -81 219 -160 0 -79 -82 -142 -196 -152 -74 -6 -146 15 -219 64 -39 25
-53 30 -63 21 -12 -9 -9 -15 14 -35 41 -33 91 -58 159 -77 148 -43 323 33 342
149 19 116 -54 183 -250 228 -153 35 -207 74 -207 151 0 34 6 46 40 78 76 72
205 76 314 9 73 -46 109 -25 39 22 -88 57 -192 78 -275 55z"/>
<path d="M7475 3911 c-90 -25 -149 -73 -165 -133 -14 -50 -5 -90 27 -129 35
-41 82 -63 200 -92 120 -30 160 -48 199 -88 59 -62 29 -155 -64 -200 -98 -48
-218 -34 -323 37 -28 19 -55 31 -60 28 -29 -17 12 -53 116 -101 50 -22 74 -27
140 -27 133 -1 230 58 256 155 11 43 10 50 -12 95 -32 66 -96 103 -224 132
-195 45 -263 113 -205 206 33 54 93 81 180 81 68 0 82 -4 145 -37 44 -24 73
-34 79 -28 15 15 -11 37 -79 70 -67 32 -157 45 -210 31z"/>
<path d="M4807 3903 c-12 -11 -8 -691 3 -698 6 -4 17 -1 25 5 12 10 15 44 15
166 l0 154 185 0 185 0 2 -162 c3 -137 5 -163 18 -163 13 0 15 46 15 350 0
304 -2 350 -15 350 -13 0 -15 -26 -18 -162 l-2 -163 -185 0 -185 0 0 153 c0
106 -4 157 -12 165 -14 14 -22 15 -31 5z"/>
<path d="M5576 3894 c-11 -29 -7 -682 4 -689 6 -4 17 -1 25 5 13 11 15 66 15
344 0 245 -3 335 -12 344 -16 16 -25 15 -32 -4z"/>
<path d="M6564 3899 c-13 -22 16 -30 122 -32 l109 -2 5 -330 c4 -284 7 -330
20 -330 13 0 16 46 20 330 l5 330 114 2 c62 1 116 4 118 7 3 3 3 12 0 21 -6
13 -40 15 -256 15 -169 0 -252 -4 -257 -11z"/>
<path d="M8047 3904 c-11 -12 -8 -451 4 -498 16 -66 75 -136 144 -171 49 -25
70 -30 129 -30 90 1 149 28 211 97 68 76 75 111 75 375 0 196 -2 224 -16 230
-9 3 -19 0 -24 -6 -4 -7 -8 -116 -9 -244 -3 -254 -7 -275 -64 -336 -117 -124
-308 -91 -398 69 -11 19 -15 85 -19 269 -5 231 -10 268 -33 245z"/>
<path d="M5996 3559 c-93 -248 -125 -344 -117 -352 17 -17 32 5 67 96 l31 82
164 0 164 0 35 -89 c35 -87 54 -112 65 -84 3 8 -50 165 -119 349 -100 268
-128 335 -143 337 -17 3 -37 -43 -147 -339z m222 64 l70 -188 -140 -3 c-78 -1
-143 0 -146 3 -3 3 18 67 47 143 29 75 60 158 69 185 9 26 19 47 23 47 3 0 38
-84 77 -187z"/>
</g>
</svg>
